<svg width="50" height="31" viewBox="0 0 50 31" fill="none" xmlns="http://www.w3.org/2000/svg">
    <path d="M17.2638 26.1286V22.2826C20.9059 22.3422 24.2175 23.3781 26.9078 25.3008C29.5983 23.3778 32.9088 22.3422 36.5514 22.2826V26.1286C30.327 26.1286 26.9078 30.625 26.9078 30.625C26.9078 30.625 23.4886 26.1286 17.2638 26.1286ZM45.5257 20.62V6.05012H49.2595V20.6203L45.5257 20.62ZM39.1783 20.62V1.15833H42.9121V20.6203L39.1783 20.62ZM0 20.62V2.26349H6.50777C8.29563 2.22574 10.0663 2.61377 11.6697 3.39467C13.1139 4.11037 14.3112 5.23123 15.111 6.61627C15.9429 8.09973 16.3615 9.77398 16.3244 11.4688C16.3639 13.1554 15.9449 14.8218 15.111 16.2949C14.3049 17.6686 13.1086 18.7795 11.6697 19.4905C10.0663 20.2714 8.29563 20.6594 6.50777 20.6217L0 20.62ZM3.73381 17.4906H6.37413C8.32994 17.4906 9.84124 16.9646 10.908 15.9126C11.9748 14.8606 12.5082 13.3789 12.5082 11.4676C12.5082 9.55649 11.9748 8.06182 10.908 6.98362C9.84124 5.90542 8.32994 5.36632 6.37413 5.36632H3.73381V17.4906ZM18.579 12.5134C18.579 10.4817 19.3549 8.52458 20.752 7.03146C22.1492 5.53835 24.0652 4.61876 26.1189 4.45572V4.4297H35.8101V7.80231H33.4379C34.4394 9.17473 34.9771 10.8234 34.9744 12.5142C34.9744 13.5759 34.7624 14.6271 34.3504 15.6079C33.9384 16.5888 33.3345 17.4799 32.5732 18.2306C31.8119 18.9812 30.9081 19.5767 29.9134 19.9829C28.9188 20.389 27.8527 20.5981 26.7761 20.5979C25.6996 20.5979 24.6337 20.3888 23.6392 19.9826C22.6446 19.5764 21.7409 18.9809 20.9798 18.2303C20.2186 17.4796 19.6148 16.5885 19.2029 15.6077C18.7909 14.627 18.5789 13.5758 18.579 12.5142V12.5134ZM22.0856 12.5134C22.0857 13.7401 22.5799 14.9165 23.4596 15.7839C24.3392 16.6512 25.5322 17.1385 26.7761 17.1385C27.3921 17.1385 28.0021 17.0189 28.5712 16.7865C29.1402 16.5541 29.6573 16.2134 30.0929 15.7838C30.5285 15.3543 30.874 14.8444 31.1097 14.2832C31.3454 13.722 31.4667 13.1205 31.4666 12.5131C31.4664 11.2866 30.9721 10.1103 30.0925 9.24311C29.2129 8.37591 28.02 7.88877 26.7761 7.88885C25.5321 7.88885 24.3391 8.37617 23.4595 9.2436C22.5798 10.111 22.0856 11.2875 22.0856 12.5142V12.5134ZM45.779 3.69556C45.5665 3.49879 45.3984 3.26006 45.2858 2.99493C45.1732 2.7298 45.1185 2.44424 45.1254 2.15687C45.1185 1.86951 45.1732 1.58395 45.2858 1.31882C45.3984 1.05369 45.5665 0.814958 45.779 0.618187C45.9973 0.413312 46.2547 0.253261 46.5363 0.147331C46.8179 0.0414017 47.1181 -0.008295 47.4193 0.00112788C47.7206 -0.00814467 48.0207 0.0417046 48.3022 0.14778C48.5838 0.253855 48.8411 0.414042 49.0594 0.619035C49.2719 0.815806 49.4399 1.05454 49.5525 1.31967C49.6651 1.5848 49.7198 1.87036 49.7129 2.15772C49.7198 2.44509 49.6651 2.73065 49.5525 2.99578C49.4399 3.2609 49.2719 3.49964 49.0594 3.69641C48.8412 3.90146 48.5838 4.06169 48.3023 4.16782C48.0207 4.27394 47.7206 4.32384 47.4193 4.3146C47.118 4.32384 46.8178 4.27392 46.5362 4.16774C46.2546 4.06157 45.9972 3.90126 45.779 3.69613V3.69556Z" fill="#952DD1"/>
</svg>